<?xml version="1.0" encoding="utf-8"?>
<!-- Generator: Adobe Illustrator 25.4.1, SVG Export Plug-In . SVG Version: 6.00 Build 0)  -->
<svg version="1.1" xmlns="http://www.w3.org/2000/svg" xmlns:xlink="http://www.w3.org/1999/xlink" x="0px" y="0px"
	 viewBox="0 0 1200 1268.3" style="enable-background:new 0 0 1200 1268.3;" xml:space="preserve">
<style type="text/css">
	.st0{fill:#24AB70;}
</style>
<g id="Background">
</g>
<g id="Graphic_Elements">
	<path class="st0" d="M1014.4,1268.3c-20.3,0-40.7-3.4-60.7-10.2l-338.6-115.4c-1.9-0.6-3.7-1.5-5.4-2.6l-9.8-6.1l-9.8,6.1
		c-1.7,1.1-3.5,1.9-5.4,2.6l-338.6,115.4c-57.6,19.6-119,10.6-168.4-24.8C28.4,1197.9,0,1142.7,0,1081.9V540
		c0-54.5,23.8-106.1,65.2-141.5L479,44.7C512.7,15.9,555.7,0,600,0s87.3,15.9,121,44.7l413.8,353.8c41.4,35.4,65.2,87,65.2,141.5
		v541.9c0,60.8-28.4,116-77.8,151.4C1089.9,1256.4,1052.5,1268.3,1014.4,1268.3z M652.8,1101l317.5,108.2
		c41.6,14.2,86,7.6,121.7-17.9c35.7-25.6,56.3-65.5,56.3-109.4V540c0-39.4-17.2-76.7-47.1-102.3L687.4,83.9
		c-50.7-43.3-124.2-43.3-174.9,0L98.8,437.7C68.8,463.3,51.7,500.6,51.7,540v541.9c0,44,20.5,83.8,56.3,109.4
		c35.7,25.6,80.1,32.1,121.7,17.9L547.2,1101l-20.7-13c-0.6-0.4-1.1-0.7-1.7-1.2c-30.8-22.9-60.7-47.9-89-74.4
		c-51-47.9-114.7-112.4-155.4-186.8c-39.1-71.4-50.6-141-34.3-206.9c8.9-36.1,27.8-70.3,53.2-96.4c27.6-28.5,61-45.9,96.3-50.4
		c38.7-4.9,81.4,7.6,127,37.2c32.3,21,58.8,45.8,77.5,65.7c18.7-19.9,45.1-44.8,77.5-65.7c45.6-29.6,88.3-42.1,127-37.2
		c35.4,4.5,68.7,21.9,96.3,50.4c25.4,26.1,44.2,60.4,53.2,96.4c16.3,65.9,4.7,135.5-34.3,206.9c-40.7,74.4-104.4,138.9-155.4,186.8
		c-28.2,26.5-58.2,51.6-89,74.4c-0.6,0.4-1.1,0.8-1.7,1.2L652.8,1101z M554.7,1044.8l45.3,28.3l45.3-28.3c28.9-21.5,57-45.1,83.6-70
		c48.2-45.3,108.3-106,145.5-173.9c33.1-60.5,42.8-116,29.5-169.7c-14-56.6-58.5-102-105.8-108c-56.4-7.1-131.8,50.6-178,107.2
		c-4.9,6-12.3,9.5-20,9.5s-15.1-3.5-20-9.5C533.8,573.7,458.4,516,402,523.2c-47.3,6-91.8,51.4-105.8,108
		c-13.3,53.6-3.6,109.1,29.5,169.7c37.2,68,97.3,128.7,145.5,173.9C497.7,999.7,525.8,1023.3,554.7,1044.8z M659.9,1066.1
		L659.9,1066.1L659.9,1066.1z"/>
</g>
<g id="Text">
</g>
</svg>
